<?xml version="1.0" encoding="UTF-8" standalone="no"?>
<!-- Created with Inkscape (http://www.inkscape.org/) -->

<svg
   width="67.533386mm"
   height="15.736053mm"
   viewBox="0 0 67.533387 15.736053"
   version="1.1"
   id="svg996"
   sodipodi:docname="logo.svg"
   inkscape:version="1.2.1 (9c6d41e410, 2022-07-14)"
   xmlns:inkscape="http://www.inkscape.org/namespaces/inkscape"
   xmlns:sodipodi="http://sodipodi.sourceforge.net/DTD/sodipodi-0.dtd"
   xmlns="http://www.w3.org/2000/svg"
   xmlns:svg="http://www.w3.org/2000/svg">
  <sodipodi:namedview
     id="namedview998"
     pagecolor="#ffffff"
     bordercolor="#666666"
     borderopacity="1.0"
     inkscape:pageshadow="2"
     inkscape:pageopacity="0.0"
     inkscape:pagecheckerboard="0"
     inkscape:document-units="mm"
     showgrid="false"
     inkscape:zoom="3.0043662"
     inkscape:cx="129.81107"
     inkscape:cy="53.0894"
     inkscape:window-width="1920"
     inkscape:window-height="1053"
     inkscape:window-x="0"
     inkscape:window-y="0"
     inkscape:window-maximized="1"
     inkscape:current-layer="layer1"
     fit-margin-top="0"
     fit-margin-left="0"
     fit-margin-right="0"
     fit-margin-bottom="0"
     inkscape:showpageshadow="0"
     inkscape:deskcolor="#d1d1d1" />
  <defs
     id="defs993" />
  <g
     inkscape:label="Layer 1"
     inkscape:groupmode="layer"
     id="layer1"
     transform="translate(-35.796281,-96.605179)">
    <g
       aria-label="ort"
       id="text18702"
       style="font-size:14.1111px;line-height:1.25;font-family:Caladea;-inkscape-font-specification:Caladea;letter-spacing:0.590021px;word-spacing:0px;fill:#ffffff;stroke-width:0.0700042" />
    <g
       id="g1087"
       inkscape:export-filename="logo.png"
       inkscape:export-xdpi="250"
       inkscape:export-ydpi="250">
      <g
         id="g1038"
         transform="translate(0,0.12637304)">
        <rect
           style="fill:#ffffff;fill-opacity:1;stroke:none;stroke-width:0.0914084;stroke-miterlimit:4;stroke-dasharray:none;stroke-opacity:1"
           id="rect18694"
           width="23.999231"
           height="15.736053"
           x="79.330437"
           y="96.478806"
           ry="2.9265988"
           inkscape:export-filename="/home/gn/Code/TypeScript/vscode-fortran-support/assets/modern-fortran-logo.png"
           inkscape:export-xdpi="150.11394"
           inkscape:export-ydpi="150.11394" />
        <rect
           style="fill:#734f96;fill-opacity:1;stroke:none;stroke-width:0.107605;stroke-miterlimit:4;stroke-dasharray:none;stroke-opacity:1"
           id="rect18696"
           width="33.257595"
           height="15.736053"
           x="53.047508"
           y="96.478806"
           ry="2.9265988"
           inkscape:export-filename="/home/gn/Code/TypeScript/vscode-fortran-support/assets/modern-fortran-logo.png"
           inkscape:export-xdpi="150.11394"
           inkscape:export-ydpi="150.11394" />
        <path
           d="m 64.105935,106.50585 c 0,2.14489 1.53811,3.683 3.97933,3.683 2.088443,-0.0141 3.499553,-1.12889 3.852331,-2.86456 0.52211,-2.46944 -1.143,-4.50144 -3.866442,-4.50144 -2.412998,0 -3.951108,1.55222 -3.965219,3.683 z m 1.834443,0 c 0,-0.18344 0.01411,-0.35278 0.04233,-0.53622 0.169333,-1.46756 1.001888,-2.25778 2.088443,-2.25778 1.086555,0 1.904999,0.79022 2.088443,2.25778 0.04233,0.35278 0.04233,0.71967 0,1.07244 -0.169333,1.46756 -1.001888,2.27189 -2.088443,2.27189 -1.100666,0 -1.91911,-0.80433 -2.088443,-2.27189 -0.02822,-0.18344 -0.04233,-0.36689 -0.04233,-0.53622 z"
           style="font-size:14.1111px;line-height:1.25;font-family:Clarendon;-inkscape-font-specification:Clarendon;letter-spacing:0.590021px;word-spacing:0px;fill:#ffffff;stroke-width:0.0700042"
           id="path843"
           transform="translate(1.2291667e-6)" />
        <path
           d="m 73.190835,103.93763 h 0.691444 c 0.634999,0 0.719666,0.0847 0.719666,0.70556 v 3.17499 l 0.01411,0.49389 c 0.01411,0.57856 -0.127,0.70556 -0.691444,0.70556 h -0.705555 v 0.93133 h 4.741329 v -0.93133 h -0.77611 c -0.719666,0 -0.846666,-0.11289 -0.846666,-0.70556 v -2.13077 c 0,-0.98778 0.211666,-1.59456 0.677333,-2.08845 0.451555,-0.47977 0.846666,-0.635 1.269999,-0.56444 -0.141111,0.11289 -0.254,0.26811 -0.310444,0.43744 -0.183445,0.59267 0.225777,1.15711 0.860777,1.17122 0.592666,0.0141 1.072443,-0.52211 0.959555,-1.24177 -0.08467,-0.56445 -0.493889,-0.98778 -1.185333,-1.11478 -0.112889,-0.0282 -0.225778,-0.0282 -0.338666,-0.0282 -0.635,0 -1.171222,0.29633 -1.777999,1.10066 -0.05644,0.0706 -0.112889,0.14112 -0.155222,0.21167 v -1.07244 h -3.146775 z"
           id="path845"
           style="font-size:14.1111px;line-height:1.25;font-family:Caladea;-inkscape-font-specification:Caladea;letter-spacing:0.590021px;word-spacing:0px;fill:#ffffff;stroke-width:0.0700042"
           transform="translate(1.2291667e-6)" />
        <path
           d="m 80.2437,103.90941 h 1.227666 v 3.61244 c 0,1.778 0.663222,2.56822 2.130776,2.58233 1.354666,0.0141 2.088443,-0.74789 2.088443,-2.14489 v -0.70555 h -0.846666 v 0.53622 c 0,0.0706 0,0.14111 0,0.21167 -0.04233,0.55033 -0.183444,0.83255 -0.409222,1.00189 -0.380999,0.28222 -0.959555,0.11288 -1.142999,-0.36689 -0.04233,-0.127 -0.07055,-0.28222 -0.07055,-0.47978 l -0.01411,-0.35278 v -0.18344 -3.71122 h 2.116665 v -0.91722 h -2.116665 v -2.44122 h -0.889 c 0,0.15522 0,0.29633 -0.02822,0.45155 -0.169333,1.19945 -0.677333,1.80622 -1.580443,1.97556 -0.155222,0.0282 -0.310444,0.0423 -0.465667,0.0282 z"
           id="path847"
           style="font-size:14.1111px;line-height:1.25;font-family:Caladea;-inkscape-font-specification:Caladea;letter-spacing:0.590021px;word-spacing:0px;fill:#ffffff;stroke-width:0.0700042"
           transform="translate(1.2291667e-6)" />
        <g
           aria-label="F"
           id="text18706"
           style="font-size:16.2278px;line-height:1.25;font-family:Clarendon;-inkscape-font-specification:Clarendon;fill:#ffffff;stroke-width:0.264583">
          <path
             d="m 54.195428,99.705684 h 1.379363 c 0.04868,0 0.113594,0 0.162278,0 0.519289,0.04868 0.616656,0.178506 0.616656,0.924986 v 6.84813 0.5842 c 0,0.74648 -0.08114,0.8763 -0.616656,0.92499 -0.04868,0 -0.113595,0.0162 -0.162278,0.0162 h -1.363135 v 1.18463 h 6.653398 v -1.18463 h -1.233313 c -0.06491,0 -0.129823,-0.0162 -0.194734,-0.0162 -0.762706,-0.0487 -0.860073,-0.16228 -0.860073,-0.92499 v -3.2131 h 1.736374 c 1.168402,0 1.590325,0.38946 1.590325,1.52541 v 0.55174 h 1.038579 v -5.3714 h -1.071035 v 0.5842 c 0,0.1136 0,0.22719 -0.01623,0.34079 -0.113594,0.92498 -0.503061,1.21708 -1.655235,1.21708 h -1.62278 v -3.992036 h 3.521433 c 2.012247,0 2.758726,0.567976 2.985915,2.093386 0.03245,0.17851 0.04868,0.34078 0.04868,0.51929 l 0.01623,0.76271 h 1.10349 V 98.504827 H 54.195428 Z"
             id="path840" />
        </g>
        <g
           aria-label="LS"
           id="text18710"
           style="font-size:16.2278px;line-height:1.25;font-family:'Segoe UI';-inkscape-font-specification:'Segoe UI';stroke-width:0.264583">
          <path
             d="M 94.084508,110.02419 H 87.317642 V 98.661563 h 2.559365 v 9.286617 h 4.207501 z"
             style="font-weight:bold"
             id="path850" />
          <path
             d="m 95.090822,109.58839 v -2.5356 q 0.689365,0.57844 1.497585,0.87161 0.808221,0.28526 1.632289,0.28526 0.483348,0 0.839915,-0.0872 0.364492,-0.0872 0.602204,-0.23771 0.245636,-0.15848 0.364495,-0.3645 0.11885,-0.21394 0.11885,-0.45957 0,-0.3328 -0.190167,-0.59428 -0.19017,-0.26149 -0.522966,-0.48335 -0.324873,-0.22186 -0.776526,-0.42788 -0.451653,-0.20602 -0.974619,-0.41996 -1.331187,-0.55466 -1.988856,-1.35496 -0.649746,-0.80029 -0.649746,-1.93339 0,-0.88746 0.356568,-1.52135 0.356568,-0.641826 0.966695,-1.05386 0.618051,-0.412034 1.426271,-0.602203 0.808221,-0.198093 1.711526,-0.198093 0.88746,0 1.5689,0.110932 0.68936,0.103008 1.2678,0.324873 v 2.369191 q -0.28526,-0.19809 -0.62598,-0.34864 -0.3328,-0.15055 -0.68936,-0.24564 -0.35657,-0.103 -0.71314,-0.15055 -0.348643,-0.0475 -0.665593,-0.0475 -0.435805,0 -0.792373,0.0872 -0.356567,0.0792 -0.602203,0.22979 -0.245636,0.15055 -0.380339,0.36449 -0.134704,0.20602 -0.134704,0.4675 0,0.28526 0.150551,0.51504 0.150551,0.22187 0.427882,0.42789 0.27733,0.19809 0.673517,0.39618 0.396186,0.19017 0.895381,0.39619 0.681441,0.28525 1.220251,0.61013 0.54674,0.31695 0.935,0.72106 0.38827,0.40411 0.59428,0.92707 0.20602,0.51504 0.20602,1.20441 0,0.95085 -0.36449,1.60059 -0.35657,0.64183 -0.97462,1.04594 -0.61805,0.39618 -1.44212,0.5705 -0.816143,0.17433 -1.727372,0.17433 -0.935,0 -1.782839,-0.15848 -0.839916,-0.15847 -1.457967,-0.47542 z"
             style="font-weight:bold"
             id="path852" />
        </g>
      </g>
      <g
         id="g865"
         transform="matrix(1.084278,0,0,1.084278,-53.76069,-8.3522295)">
        <path
           fill="currentColor"
           d="m 92.925121,106.02129 h 0.709225 l 2.667214,-2.82639 v -0.75259 l -1.338595,-1.4077 h -0.699287 l -1.818094,1.91575 h -4.994795 v -1.32314 l 1.858064,-1.95828 v -0.752592 l -1.997912,-2.116971 h -0.719164 l -3.995827,4.234053 v 0.75259 l 1.997925,2.11713 h 0.709226 l 1.138806,-1.2175 v 6.12899 l 0.49944,0.52844 h 4.645142 v 0.55069 l 1.328619,1.41849 h 0.709229 l 2.66721,-2.82619 v -0.7526 l -1.338591,-1.40777 h -0.699291 l -1.858055,1.95835 h -4.994909 v -4.23429 h 4.185618 v 0.50722 z m 1.688227,-3.86378 0.62936,0.66757 -1.997906,2.11709 -0.629356,-0.66757 z m 0,5.29272 0.62936,0.66756 -1.997906,2.11701 -0.629356,-0.66757 z m -9.669883,-4.66817 -1.288645,-1.37608 3.286565,-3.482563 1.298635,1.365556 z"
           id="path2-75"
           style="fill:#ee9d28;fill-opacity:1;stroke-width:1.02831" />
        <rect
           style="fill:#734f96;fill-opacity:1;stroke:none;stroke-width:0.0313294;stroke-miterlimit:4;stroke-dasharray:none;stroke-opacity:1"
           id="rect881"
           width="6.6605945"
           height="6.6605945"
           x="89.819099"
           y="99.595383"
           ry="1.2387406" />
        <path
           inkscape:connector-curvature="0"
           id="path1412"
           d="m 90.726921,105.24001 c 0,-0.26484 0.0019,-0.28844 0.02524,-0.28893 0.01389,-2.7e-4 0.150824,-0.006 0.304329,-0.0136 0.247197,-0.0116 0.28666,-0.0169 0.34531,-0.0463 0.04637,-0.0233 0.07509,-0.0505 0.09582,-0.0909 0.02938,-0.0573 0.02961,-0.0705 0.02961,-1.88174 0,-1.702 -0.0016,-1.82712 -0.02497,-1.86966 -0.03152,-0.0576 -0.08618,-0.10087 -0.15336,-0.12139 -0.02883,-0.009 -0.180559,-0.0195 -0.337192,-0.0237 l -0.284784,-0.008 v -0.28655 -0.28655 h 2.422475 2.422472 v 1.07425 1.07425 l -0.255943,-0.001 c -0.140772,-7.8e-4 -0.272169,-0.006 -0.291998,-0.0115 -0.03546,-0.01 -0.03632,-0.0138 -0.05332,-0.23288 -0.02181,-0.28125 -0.03963,-0.4058 -0.08485,-0.59288 -0.09776,-0.40447 -0.30404,-0.62451 -0.640881,-0.68363 -0.141325,-0.0248 -0.757914,-0.0488 -1.264909,-0.0492 l -0.349676,-2.8e-4 v 0.80772 0.80772 l 0.183851,-0.009 c 0.210196,-0.0104 0.375427,-0.0358 0.455189,-0.0699 0.08494,-0.0363 0.174641,-0.12813 0.216628,-0.2217 0.04387,-0.0978 0.07258,-0.22622 0.09561,-0.4279 0.0091,-0.0793 0.01947,-0.15879 0.02313,-0.17664 0.0066,-0.0323 0.0078,-0.0324 0.28757,-0.0324 h 0.280902 v 1.29054 1.29055 h -0.286266 -0.286263 l -0.0096,-0.14888 c -0.01744,-0.26959 -0.06992,-0.52491 -0.133,-0.64689 -0.08622,-0.16674 -0.255921,-0.24169 -0.597013,-0.2637 -0.07534,-0.005 -0.15851,-0.0122 -0.184819,-0.0162 l -0.04783,-0.007 0.0056,0.81193 c 0.0059,0.85636 0.0085,0.88982 0.07343,0.96159 0.06681,0.0738 0.105775,0.0789 0.784481,0.10206 0.01381,4.3e-4 0.01802,0.0682 0.01802,0.28901 v 0.28839 h -1.39148 -1.391481 z"
           style="fill:#ffffff;stroke-width:0.0313297" />
      </g>
    </g>
  </g>
</svg>
