<?xml version="1.0" encoding="UTF-8" standalone="no"?>
<svg
   aria-hidden="true"
   role="img"
   width="1em"
   height="1em"
   preserveAspectRatio="xMidYMid meet"
   viewBox="0 0 16 16"
   version="1.1"
   id="svg4"
   sodipodi:docname="symbol-class.svg"
   inkscape:version="1.1.2 (0a00cf5339, 2022-02-04)"
   xmlns:inkscape="http://www.inkscape.org/namespaces/inkscape"
   xmlns:sodipodi="http://sodipodi.sourceforge.net/DTD/sodipodi-0.dtd"
   xmlns="http://www.w3.org/2000/svg"
   xmlns:svg="http://www.w3.org/2000/svg">
  <defs
     id="defs8" />
  <sodipodi:namedview
     id="namedview6"
     pagecolor="#ffffff"
     bordercolor="#666666"
     borderopacity="1.0"
     inkscape:pageshadow="2"
     inkscape:pageopacity="0.0"
     inkscape:pagecheckerboard="0"
     showgrid="false"
     inkscape:zoom="35.084517"
     inkscape:cx="6.398834"
     inkscape:cy="8.0804875"
     inkscape:window-width="1920"
     inkscape:window-height="1023"
     inkscape:window-x="0"
     inkscape:window-y="0"
     inkscape:window-maximized="1"
     inkscape:current-layer="svg4" />
  <path
     fill="currentColor"
     d="M11.34 9.71h.71l2.67-2.67v-.71L13.38 5h-.7l-1.82 1.81h-5V5.56l1.86-1.85V3l-2-2H5L1 5v.71l2 2h.71l1.14-1.15v5.79l.5.5H10v.52l1.33 1.34h.71l2.67-2.67v-.71L13.37 10h-.7l-1.86 1.85h-5v-4H10v.48l1.34 1.38zm1.69-3.65l.63.63l-2 2l-.63-.63l2-2zm0 5l.63.63l-2 2l-.63-.63l2-2zM3.35 6.65l-1.29-1.3l3.29-3.29l1.3 1.29l-3.3 3.3z"
     id="path2" />
</svg>
