<?xml version="1.0" encoding="UTF-8" standalone="no"?>
<!-- Created with Inkscape (http://www.inkscape.org/) -->

<svg
   width="13.883744mm"
   height="14.512883mm"
   viewBox="0 0 13.883744 14.512883"
   version="1.1"
   id="svg9853"
   inkscape:version="1.1.2 (0a00cf5339, 2022-02-04)"
   sodipodi:docname="icon.svg"
   xmlns:inkscape="http://www.inkscape.org/namespaces/inkscape"
   xmlns:sodipodi="http://sodipodi.sourceforge.net/DTD/sodipodi-0.dtd"
   xmlns="http://www.w3.org/2000/svg"
   xmlns:svg="http://www.w3.org/2000/svg">
  <sodipodi:namedview
     id="namedview9855"
     pagecolor="#ffffff"
     bordercolor="#666666"
     borderopacity="1.0"
     inkscape:pageshadow="2"
     inkscape:pageopacity="0.0"
     inkscape:pagecheckerboard="0"
     inkscape:document-units="mm"
     showgrid="false"
     fit-margin-top="0"
     fit-margin-left="0"
     fit-margin-right="0"
     fit-margin-bottom="0"
     inkscape:zoom="6.0007856"
     inkscape:cx="-16.247873"
     inkscape:cy="57.242505"
     inkscape:window-width="1920"
     inkscape:window-height="1053"
     inkscape:window-x="0"
     inkscape:window-y="0"
     inkscape:window-maximized="1"
     inkscape:current-layer="layer1" />
  <defs
     id="defs9850" />
  <g
     inkscape:label="Layer 1"
     inkscape:groupmode="layer"
     id="layer1"
     transform="translate(-82.59595,-96.799377)">
    <g
       id="g855">
      <path
         fill="currentColor"
         d="m 92.925121,106.02129 h 0.709225 l 2.667214,-2.82639 v -0.75259 l -1.338595,-1.4077 h -0.699287 l -1.818094,1.91575 h -4.994795 v -1.32314 l 1.858064,-1.95828 v -0.752592 l -1.997912,-2.116971 h -0.719164 l -3.995827,4.234053 v 0.75259 l 1.997925,2.11713 h 0.709226 l 1.138806,-1.2175 v 6.12899 l 0.49944,0.52844 h 4.645142 v 0.55069 l 1.328619,1.41849 h 0.709229 l 2.66721,-2.82619 v -0.7526 l -1.338591,-1.40777 h -0.699291 l -1.858055,1.95835 h -4.994909 v -4.23429 h 4.185618 v 0.50722 z m 1.688227,-3.86378 0.62936,0.66757 -1.997906,2.11709 -0.629356,-0.66757 z m 0,5.29272 0.62936,0.66756 -1.997906,2.11701 -0.629356,-0.66757 z m -9.669883,-4.66817 -1.288645,-1.37608 3.286565,-3.482563 1.298635,1.365556 z"
         id="path2-75"
         style="fill:#ee9d28;fill-opacity:1;stroke-width:1.02831" />
      <g
         id="g9019"
         transform="matrix(0.74879652,0,0,0.74879652,20.393144,68.451434)">
        <g
           id="g8289"
           transform="matrix(0.52098308,0,0,0.52098308,50.741163,22.017883)">
          <rect
             style="fill:#734f96;fill-opacity:1;stroke:none;stroke-width:0.0803091;stroke-miterlimit:4;stroke-dasharray:none;stroke-opacity:1"
             id="rect881"
             width="17.073618"
             height="17.073618"
             x="80.569901"
             y="37.571503"
             ry="3.1753597" />
          <path
             inkscape:connector-curvature="0"
             id="path1412"
             d="m 82.896988,52.040811 c 0,-0.678884 0.005,-0.739363 0.0647,-0.740624 0.0356,-6.83e-4 0.38662,-0.01646 0.78011,-0.03492 0.63366,-0.02971 0.73482,-0.04329 0.88516,-0.118757 0.11887,-0.05967 0.19248,-0.129523 0.24561,-0.233059 0.0753,-0.146811 0.0759,-0.180765 0.0759,-4.823619 0,-4.362865 -0.004,-4.683588 -0.064,-4.792632 -0.0808,-0.147644 -0.22092,-0.258563 -0.39312,-0.311162 -0.0739,-0.02257 -0.46284,-0.04989 -0.86435,-0.06072 l -0.73001,-0.01969 v -0.73453 -0.734534 h 6.20972 6.20971 v 2.753713 2.753713 l -0.65608,-0.0037 c -0.36085,-0.002 -0.69767,-0.01525 -0.7485,-0.02938 -0.0909,-0.02527 -0.0931,-0.03523 -0.13669,-0.596958 -0.0559,-0.720949 -0.10159,-1.040214 -0.21749,-1.519774 -0.2506,-1.036815 -0.77937,-1.600851 -1.64282,-1.752393 -0.36227,-0.06358 -1.94282,-0.125014 -3.24244,-0.126028 l -0.89635,-7.06e-4 v 2.070491 2.07049 l 0.47128,-0.02337 c 0.53881,-0.02672 0.96236,-0.09179 1.16682,-0.179251 0.21774,-0.09315 0.44767,-0.328446 0.5553,-0.568292 0.11246,-0.250583 0.18604,-0.579882 0.24509,-1.096865 0.0232,-0.203294 0.0499,-0.40705 0.0593,-0.452791 0.017,-0.08282 0.0201,-0.08317 0.73715,-0.08317 h 0.72006 v 3.308151 3.308152 h -0.73381 -0.7338 l -0.0247,-0.381625 c -0.0447,-0.691072 -0.17924,-1.345547 -0.34093,-1.658227 -0.22102,-0.427414 -0.65602,-0.619546 -1.53037,-0.67595 -0.19313,-0.01246 -0.40632,-0.03121 -0.47376,-0.04166 l -0.12261,-0.01901 0.0143,2.081285 c 0.0151,2.195187 0.0217,2.280958 0.18824,2.464916 0.17127,0.189141 0.27114,0.202133 2.01092,0.261634 0.0354,0.0011 0.0462,0.174915 0.0462,0.740833 v 0.739251 h -3.56689 -3.56689 z"
             style="fill:#ffffff;stroke-width:0.0803098" />
        </g>
      </g>
    </g>
  </g>
</svg>
