<?xml version="1.0" encoding="UTF-8" standalone="no"?>
<!-- Created with Inkscape (http://www.inkscape.org/) -->

<svg
   width="13.883744mm"
   height="14.512883mm"
   viewBox="0 0 13.883744 14.512883"
   version="1.1"
   id="svg9853"
   inkscape:version="1.1.2 (0a00cf5339, 2022-02-04)"
   sodipodi:docname="icon.svg"
   xmlns:inkscape="http://www.inkscape.org/namespaces/inkscape"
   xmlns:sodipodi="http://sodipodi.sourceforge.net/DTD/sodipodi-0.dtd"
   xmlns="http://www.w3.org/2000/svg"
   xmlns:svg="http://www.w3.org/2000/svg">
  <sodipodi:namedview
     id="namedview9855"
     pagecolor="#ffffff"
     bordercolor="#666666"
     borderopacity="1.0"
     inkscape:pageshadow="2"
     inkscape:pageopacity="0.0"
     inkscape:pagecheckerboard="0"
     inkscape:document-units="mm"
     showgrid="false"
     fit-margin-top="0"
     fit-margin-left="0"
     fit-margin-right="0"
     fit-margin-bottom="0"
     inkscape:zoom="6.0007856"
     inkscape:cx="-1.9164157"
     inkscape:cy="57.242505"
     inkscape:window-width="1920"
     inkscape:window-height="1023"
     inkscape:window-x="0"
     inkscape:window-y="0"
     inkscape:window-maximized="1"
     inkscape:current-layer="layer1" />
  <defs
     id="defs9850" />
  <g
     inkscape:label="Layer 1"
     inkscape:groupmode="layer"
     id="layer1"
     transform="translate(-82.59595,-96.799377)">
    <g
       id="g865">
      <path
         fill="currentColor"
         d="m 92.925121,106.02129 h 0.709225 l 2.667214,-2.82639 v -0.75259 l -1.338595,-1.4077 h -0.699287 l -1.818094,1.91575 h -4.994795 v -1.32314 l 1.858064,-1.95828 v -0.752592 l -1.997912,-2.116971 h -0.719164 l -3.995827,4.234053 v 0.75259 l 1.997925,2.11713 h 0.709226 l 1.138806,-1.2175 v 6.12899 l 0.49944,0.52844 h 4.645142 v 0.55069 l 1.328619,1.41849 h 0.709229 l 2.66721,-2.82619 v -0.7526 l -1.338591,-1.40777 h -0.699291 l -1.858055,1.95835 h -4.994909 v -4.23429 h 4.185618 v 0.50722 z m 1.688227,-3.86378 0.62936,0.66757 -1.997906,2.11709 -0.629356,-0.66757 z m 0,5.29272 0.62936,0.66756 -1.997906,2.11701 -0.629356,-0.66757 z m -9.669883,-4.66817 -1.288645,-1.37608 3.286565,-3.482563 1.298635,1.365556 z"
         id="path2-75"
         style="fill:#ee9d28;fill-opacity:1;stroke-width:1.02831" />
      <rect
         style="fill:#734f96;fill-opacity:1;stroke:none;stroke-width:0.0313294;stroke-miterlimit:4;stroke-dasharray:none;stroke-opacity:1"
         id="rect881"
         width="6.6605945"
         height="6.6605945"
         x="89.819099"
         y="99.595383"
         ry="1.2387406" />
      <path
         inkscape:connector-curvature="0"
         id="path1412"
         d="m 90.726921,105.24001 c 0,-0.26484 0.0019,-0.28844 0.02524,-0.28893 0.01389,-2.7e-4 0.150824,-0.006 0.304329,-0.0136 0.247197,-0.0116 0.28666,-0.0169 0.34531,-0.0463 0.04637,-0.0233 0.07509,-0.0505 0.09582,-0.0909 0.02938,-0.0573 0.02961,-0.0705 0.02961,-1.88174 0,-1.702 -0.0016,-1.82712 -0.02497,-1.86966 -0.03152,-0.0576 -0.08618,-0.10087 -0.15336,-0.12139 -0.02883,-0.009 -0.180559,-0.0195 -0.337192,-0.0237 l -0.284784,-0.008 v -0.28655 -0.28655 h 2.422475 2.422472 v 1.07425 1.07425 l -0.255943,-0.001 c -0.140772,-7.8e-4 -0.272169,-0.006 -0.291998,-0.0115 -0.03546,-0.01 -0.03632,-0.0138 -0.05332,-0.23288 -0.02181,-0.28125 -0.03963,-0.4058 -0.08485,-0.59288 -0.09776,-0.40447 -0.30404,-0.62451 -0.640881,-0.68363 -0.141325,-0.0248 -0.757914,-0.0488 -1.264909,-0.0492 l -0.349676,-2.8e-4 v 0.80772 0.80772 l 0.183851,-0.009 c 0.210196,-0.0104 0.375427,-0.0358 0.455189,-0.0699 0.08494,-0.0363 0.174641,-0.12813 0.216628,-0.2217 0.04387,-0.0978 0.07258,-0.22622 0.09561,-0.4279 0.0091,-0.0793 0.01947,-0.15879 0.02313,-0.17664 0.0066,-0.0323 0.0078,-0.0324 0.28757,-0.0324 h 0.280902 v 1.29054 1.29055 h -0.286266 -0.286263 l -0.0096,-0.14888 c -0.01744,-0.26959 -0.06992,-0.52491 -0.133,-0.64689 -0.08622,-0.16674 -0.255921,-0.24169 -0.597013,-0.2637 -0.07534,-0.005 -0.15851,-0.0122 -0.184819,-0.0162 l -0.04783,-0.007 0.0056,0.81193 c 0.0059,0.85636 0.0085,0.88982 0.07343,0.96159 0.06681,0.0738 0.105775,0.0789 0.784481,0.10206 0.01381,4.3e-4 0.01802,0.0682 0.01802,0.28901 v 0.28839 h -1.39148 -1.391481 z"
         style="fill:#ffffff;stroke-width:0.0313297" />
    </g>
  </g>
</svg>
